<svg width="47" height="47" viewBox="0 0 47 47" fill="none" xmlns="http://www.w3.org/2000/svg">
<rect width="47" height="47" fill="#30E87A"/>
<path d="M30 18.9995C30 22.3138 27.3138 25 23.9995 25C20.6862 25 18 22.3138 18 18.9995C18 15.6862 20.6862 13 23.9995 13C27.3138 13 30 15.6862 30 18.9995Z" fill="white"/>
<path d="M32.6142 30.4307C34.0304 28.4543 31.3191 26.2145 28.196 25.0018C27.0096 25.8116 25.5653 26.2901 24.0066 26.2901C22.446 26.2901 21 25.8107 19.8125 25C16.6857 26.212 13.9686 28.4544 15.3856 30.4326C17.841 33.8561 30.1588 33.8561 32.6142 30.4308V30.4307Z" fill="white"/>
</svg>
