<svg width="47" height="47" viewBox="0 0 47 47" fill="none" xmlns="http://www.w3.org/2000/svg">
<rect width="47" height="47" fill="#30E87A"/>
<path d="M27.9554 23.4239C27.1633 23.4239 26.418 23.0051 26.0149 22.3351L23.001 17.3753L19.9919 22.3351C19.5841 23.0098 18.8388 23.4285 18.0467 23.4285C17.8357 23.4285 17.6248 23.4006 17.4233 23.3401L11.0018 21.5162V29.7981C11.0018 30.4821 11.4705 31.0776 12.1361 31.2405L22.2698 33.7576C22.7479 33.8739 23.2495 33.8739 23.7229 33.7576L33.866 31.2405C34.5316 31.073 35.0003 30.4774 35.0003 29.7981V21.5162L28.5788 23.3355C28.3773 23.3959 28.1663 23.4239 27.9554 23.4239ZM37.9204 18.2035L35.5065 13.4205C35.3612 13.132 35.0472 12.9645 34.7237 13.0064L23.001 14.4906L27.2992 21.5674C27.4773 21.8605 27.8335 22.0001 28.1663 21.9071L37.4423 19.2783C37.9063 19.1433 38.1313 18.6315 37.9204 18.2035V18.2035ZM10.4956 13.4205L8.08167 18.2035C7.86605 18.6315 8.09573 19.1433 8.55507 19.2736L17.8311 21.9024C18.1638 21.9955 18.5201 21.8559 18.6982 21.5628L23.001 14.4906L11.2737 13.0064C10.9502 12.9692 10.6409 13.132 10.4956 13.4205V13.4205Z" fill="white"/>
</svg>
