<svg width="47" height="47" viewBox="0 0 47 47" fill="none" xmlns="http://www.w3.org/2000/svg">
<rect width="47" height="47" fill="black"/>
<path d="M19.2408 19.7482L17.9905 18.4979C17.805 18.3125 17.5037 18.3125 17.3192 18.4979L12.6401 23.1527C12.4546 23.3382 12.4546 23.6395 12.6401 23.824L17.3183 28.5022C17.5037 28.6877 17.805 28.6877 17.9895 28.5022L19.2398 27.2519C19.4253 27.0664 19.4253 26.7652 19.2398 26.5806L16.1602 23.5L19.2408 20.4195C19.4253 20.234 19.4253 19.9336 19.2408 19.7482V19.7482Z" fill="#FFF3F3"/>
<path d="M34.3633 23.1526L29.6851 18.4969C29.4997 18.3114 29.1984 18.3114 29.0139 18.4969L27.7636 19.7472C27.5781 19.9326 27.5781 20.2339 27.7636 20.4184L30.8432 23.4999L27.7626 26.5805C27.5772 26.766 27.5772 27.0673 27.7626 27.2518L29.0129 28.5021C29.1984 28.6876 29.4997 28.6876 29.6842 28.5021L34.3399 23.8239C34.5489 23.662 34.5489 23.3381 34.3635 23.1526L34.3633 23.1526Z" fill="#FFF3F3"/>
<path d="M26.026 17.8257H24.5206C24.3125 17.8257 24.127 17.965 24.0574 18.1495L20.5145 28.5257C20.3987 28.8495 20.6303 29.1743 20.9777 29.1743H22.4831C22.6912 29.1743 22.8767 29.035 22.9464 28.8505L26.5126 18.4743C26.6049 18.1496 26.3733 17.8257 26.0259 17.8257H26.026Z" fill="#FFF3F3"/>
</svg>
