<svg width="174" height="44" viewBox="0 0 174 44" fill="none" xmlns="http://www.w3.org/2000/svg">
<path d="M45.8478 20.1207C46.8254 20.3046 47.5141 20.7191 47.9169 21.3584C48.3196 22.0006 48.521 23.0106 48.521 24.3885C48.521 27.1267 47.698 29.3656 46.0521 31.1113C44.406 32.854 42.3019 33.7268 39.7396 33.7268C38.7298 33.7268 37.7492 33.5459 36.7978 33.181C35.8464 32.816 35.0293 32.3081 34.3464 31.6571C33.5642 30.939 32.9776 30.183 32.5866 29.3832C32.1955 28.5833 32 27.7659 32 26.9311C32 25.9969 32.2014 25.2759 32.6041 24.7651C33.0068 24.2542 33.6401 23.9069 34.5098 23.7229C34.3464 23.3434 34.2267 23.0223 34.1509 22.7625C34.075 22.5027 34.037 22.3013 34.037 22.1583C34.037 21.6708 34.2938 21.1687 34.8104 20.6578C35.3269 20.1469 35.8114 19.893 36.2696 19.893C36.4651 19.893 36.6723 19.928 36.8883 19.9981C37.1043 20.0682 37.3552 20.1849 37.6383 20.3484C36.8007 17.9809 36.1937 16.1536 35.8143 14.8662C35.4349 13.5789 35.2452 12.6915 35.2452 12.201C35.2452 11.5267 35.362 11.0129 35.7005 10.6101C36.112 10.1168 36.7336 10 37.3319 10C38.5401 10 38.972 11.0363 41.0587 16.8454C41.3388 17.6248 41.5373 18.2291 41.6774 18.6553C41.797 18.3196 41.9663 17.8408 42.1822 17.222C43.7465 12.7031 44.4148 10.4437 46.2213 10.4437C46.7758 10.4437 47.2165 10.6305 47.5491 11.0071C47.8789 11.3808 48.0453 11.8858 48.0453 12.5134C48.0453 12.9921 47.8644 13.865 47.4996 15.1377C47.1376 16.4046 46.5861 18.0656 45.8478 20.1207ZM34.1829 26.7676C34.3347 26.9515 34.5477 27.223 34.8192 27.5821C35.5371 28.5716 36.1996 29.065 36.8066 29.065C37.0138 29.065 37.1976 29.0008 37.3611 28.8694C37.5245 28.738 37.6062 28.6037 37.6062 28.4607C37.6062 28.2972 37.4982 28.0257 37.2794 27.6463C37.0605 27.2667 36.7628 26.8377 36.3834 26.3589C35.9486 25.8043 35.5867 25.4014 35.3007 25.1445C35.0118 24.8906 34.7812 24.7621 34.609 24.7621C34.2296 24.7621 33.8794 24.9665 33.5584 25.3722C33.2374 25.7809 33.0769 26.2597 33.0769 26.8143C33.0769 27.261 33.1878 27.7572 33.4096 28.306C33.6314 28.8548 33.9553 29.4065 34.3785 29.9611C35.0205 30.8193 35.8143 31.4791 36.7657 31.9403C37.7171 32.4015 38.7677 32.6322 39.9176 32.6322C42.0363 32.6322 43.8078 31.8411 45.2378 30.2618C46.6649 28.6825 47.3799 26.7004 47.3799 24.3214C47.3799 23.5944 47.3244 23.0165 47.2165 22.5845C47.1085 22.1553 46.9276 21.843 46.6795 21.6474C46.2329 21.2796 45.3691 20.9468 44.0821 20.652C42.7951 20.3601 41.4498 20.2112 40.0489 20.2112C39.6578 20.2112 39.3806 20.2754 39.2172 20.4067C39.0537 20.5381 38.972 20.76 38.972 21.0752C38.972 21.8138 39.3835 22.348 40.2094 22.6808C41.0353 23.0135 42.3719 23.177 44.2164 23.177H44.8847C45.0364 23.177 45.159 23.2354 45.2524 23.3493C45.3458 23.4631 45.4071 23.6353 45.4392 23.863C45.2553 24.0382 44.873 24.2367 44.2981 24.4585C43.7232 24.6804 43.2825 24.9023 42.979 25.1183C42.3282 25.597 41.8029 26.1634 41.4059 26.8201C41.0091 27.4769 40.8106 28.0987 40.8106 28.6854C40.8106 29.0445 40.8953 29.4766 41.0645 29.9816C41.2338 30.4865 41.3184 30.7989 41.3184 30.9186V31.0325L41.2863 31.1784C40.8077 31.1463 40.4312 30.8661 40.154 30.3406C39.8767 29.8151 39.7396 29.1116 39.7396 28.2301V28.0841C39.652 28.16 39.5674 28.2155 39.4857 28.2476C39.4039 28.2797 39.3135 28.2972 39.2172 28.2972C39.1179 28.2972 39.0275 28.2885 38.9399 28.2739C38.8524 28.2564 38.7561 28.233 38.6481 28.2009C38.6802 28.3206 38.7064 28.4373 38.721 28.5512C38.7385 28.665 38.7444 28.7555 38.7444 28.8197C38.7444 29.2226 38.5868 29.567 38.2716 29.8531C37.9564 30.1421 37.5829 30.2852 37.148 30.2852C36.4651 30.2852 35.7676 29.9524 35.0614 29.2839C34.3551 28.6154 34.002 27.9615 34.002 27.3193C34.002 27.1996 34.0166 27.0946 34.0429 27.0011C34.0721 26.9106 34.1158 26.8318 34.1829 26.7676ZM39.0683 27.1588C39.2522 27.1588 39.4214 27.0741 39.5732 26.9048C39.725 26.7355 39.8008 26.5544 39.8008 26.3589C39.8008 26.1516 39.652 25.6729 39.3514 24.9168C39.0537 24.1608 38.6802 23.4193 38.2366 22.6924C37.9097 22.1495 37.5916 21.7379 37.2764 21.4635C36.9612 21.1862 36.6636 21.049 36.3805 21.049C36.1529 21.049 35.899 21.192 35.6217 21.481C35.3445 21.77 35.2073 22.0386 35.2073 22.2867C35.2073 22.5465 35.3445 22.9377 35.6159 23.4602C35.8873 23.9827 36.2521 24.5344 36.7073 25.1212C37.186 25.7634 37.6354 26.2626 38.0586 26.6216C38.4846 26.9807 38.8203 27.1588 39.0683 27.1588ZM40.6676 19.2887L38.9078 14.2036C38.4526 12.9104 38.0994 12.0668 37.8484 11.6698C37.5975 11.2727 37.3261 11.0742 37.0342 11.0742C36.8066 11.0742 36.6227 11.1618 36.4797 11.334C36.3396 11.5092 36.2667 11.7427 36.2667 12.0346C36.2667 12.5338 36.4564 13.4037 36.8357 14.6414C37.2151 15.8792 37.7872 17.5051 38.5459 19.5135C38.6101 19.3938 38.7035 19.3091 38.8232 19.2596C38.9428 19.2099 39.1063 19.1866 39.3106 19.1866C39.3748 19.1866 39.5061 19.1924 39.7016 19.204C39.9001 19.2187 40.2211 19.2449 40.6676 19.2887ZM42.5062 24.225C42.0392 24.2045 41.5957 24.155 41.1783 24.079C40.761 24.0032 40.3612 23.8951 39.9818 23.7521C40.154 24.0995 40.3087 24.4469 40.4458 24.7942C40.5829 25.1416 40.6938 25.4832 40.7785 25.8218C41.0383 25.4948 41.3125 25.2 41.6015 24.9344C41.8904 24.6687 42.191 24.4322 42.5062 24.225ZM44.6746 19.8434C45.4012 17.8671 45.9703 16.2353 46.3759 14.948C46.7845 13.6606 46.9859 12.8695 46.9859 12.5776C46.9859 12.2623 46.9188 12.0171 46.7817 11.8449C46.6444 11.6727 46.4577 11.5851 46.2184 11.5851C45.9148 11.5851 45.6055 11.8391 45.2903 12.3441C44.9752 12.8491 44.6279 13.6606 44.2485 14.7816L42.62 19.4902L44.6746 19.8434Z" fill="white"/>
<path d="M63.9706 14.0665L70.2334 29.4241H66.9911L65.4559 25.6205H58.9247L57.4392 29.4241H54.369L60.5852 14.0665H63.9706ZM59.8498 23.2822H64.5279L62.2137 17.5286H62.1173L59.8498 23.2822Z" fill="white"/>
<path d="M73.9923 29.4237H71.0681V18.6724H73.9923V20.4269C74.5293 19.2067 75.8922 18.3776 77.5032 18.3776C80.3777 18.3776 81.4284 20.3276 81.4284 22.7184V29.4237H78.5041V23.3051C78.5041 21.647 77.8475 20.6954 76.4087 20.6954C74.9233 20.6954 73.9952 21.866 73.9952 23.67V29.4237H73.9923Z" fill="white"/>
<path d="M87.8429 25.6933C86.9644 25.6933 86.1618 25.5707 85.479 25.3021C85.2105 25.4714 85.0412 25.74 85.0412 26.0815C85.0412 26.569 85.3593 26.8872 86.1618 26.8872H90.4519C92.8391 26.8872 94.059 28.1804 94.059 29.9114C94.059 32.5942 90.9392 33.7151 87.6006 33.7151C84.6268 33.7151 82.0936 32.959 82.0936 30.9594C82.0936 29.8618 82.9721 29.0824 84.2386 28.9131C83.2639 28.5949 82.7532 27.8155 82.7532 26.9397C82.7532 25.9647 83.4361 25.232 84.4838 24.8205C83.5587 24.187 82.9983 23.2353 82.9983 22.0647C82.9983 19.7732 85.0208 18.3837 87.8487 18.3837C89.1649 18.3837 90.3819 18.7253 91.2603 19.3354C91.8703 18.4829 92.9413 17.7999 94.1115 17.7999V20.1411C93.5278 20.1411 92.8187 20.2374 92.2584 20.433C92.5502 20.8971 92.7224 21.4576 92.7224 22.0647C92.7165 24.3067 90.6708 25.6933 87.8429 25.6933ZM87.6006 31.9344C89.7456 31.9344 91.3041 31.4469 91.3041 30.399C91.3041 29.6925 90.7204 29.4239 89.7456 29.4239H86.1618C85.3826 29.4239 84.7494 29.7421 84.7494 30.5215C84.7494 31.4966 85.87 31.9344 87.6006 31.9344ZM87.8691 20.1615C86.7718 20.1615 86.0159 20.8183 86.0159 22.0618C86.0159 23.3054 86.7718 23.9622 87.8691 23.9622C88.9898 23.9622 89.7456 23.3054 89.7456 22.0618C89.7456 20.8183 88.9898 20.1615 87.8691 20.1615Z" fill="white"/>
<path d="M105.176 25.9151C104.616 28.303 102.762 29.7188 100.01 29.7188C96.695 29.7188 94.3077 27.5966 94.3077 24.2103C94.3077 20.8212 96.7213 18.3837 99.9373 18.3837C103.448 18.3837 105.252 20.8212 105.252 23.7462V24.7942H97.1853C97.2816 26.3792 98.5249 27.5002 100.11 27.5002C101.548 27.5002 102.4 26.8901 102.815 25.6728L105.176 25.9151ZM102.398 22.9638C102.301 21.7203 101.545 20.5264 99.9111 20.5264C98.303 20.5264 97.4976 21.624 97.2291 22.9638H102.398Z" fill="white"/>
<path d="M109.325 14.0662V29.4238H106.401V14.0662H109.325Z" fill="white"/>
<path d="M114.202 14.0662V26.8901H119.983V29.4268H111.155V14.0662H114.202Z" fill="white"/>
<path d="M120.669 14.0662H123.666V16.9182H120.669V14.0662ZM123.642 18.6727V29.4238H120.719V18.6727H123.642Z" fill="white"/>
<path d="M127.122 25.7691C127.292 27.0623 128.269 27.7191 129.754 27.7191C130.826 27.7191 131.704 27.3542 131.704 26.5748C131.704 25.8421 131.217 25.5269 130.146 25.3546L128.438 25.0627C126.148 24.6979 124.881 23.8425 124.881 21.8458C124.881 19.7966 126.611 18.3837 129.34 18.3837C132.315 18.3837 134.094 19.7236 134.287 22.1144L131.873 22.2107C131.678 20.9934 130.849 20.3833 129.314 20.3833C128.266 20.3833 127.583 20.8475 127.583 21.5772C127.583 22.1611 127.974 22.5026 128.754 22.6252L130.799 22.9667C133.067 23.3317 134.406 24.2833 134.406 26.3063C134.406 28.5015 132.507 29.7188 129.728 29.7188C126.927 29.7188 124.782 28.4986 124.586 25.8684L127.122 25.7691Z" fill="white"/>
<path d="M135.979 20.7219H134.444V18.9909L135.174 18.8683C136.221 18.699 136.513 18.1618 136.758 17.1606L137.1 15.6981H138.88V18.6727H141.804V20.719H138.88V26.0347C138.88 26.9602 139.294 27.3747 140.173 27.3747C140.757 27.3747 141.366 27.1558 142 26.8638V28.7905C141.22 29.3743 140.342 29.7158 139.026 29.7158C137.368 29.7158 135.979 28.986 135.979 26.6916V20.7219Z" fill="white"/>
</svg>
