<svg width="175" height="44" viewBox="0 0 175 44" fill="none" xmlns="http://www.w3.org/2000/svg">
<path d="M63.914 27.631V22.1974H69.5517V27.631H71.7789V14.818H69.5517V20.1115H63.914V14.818H61.6868V27.631H63.914Z" fill="white"/>
<path d="M75.3493 17.2369C76.0452 17.2369 76.6194 16.6585 76.6194 15.9398C76.6194 15.2212 76.0452 14.6603 75.3493 14.6603C74.6184 14.6603 74.0442 15.2212 74.0442 15.9398C74.0442 16.6585 74.6184 17.2369 75.3493 17.2369ZM74.2878 27.6311H76.4106V18.9722H74.2878V27.6311Z" fill="white"/>
<path d="M78.1166 23.1088C78.1166 25.6153 79.7174 27.4558 82.1534 27.4558C83.3888 27.4558 84.4503 26.9475 84.9896 26.1413V27.5785C84.9896 29.0158 84.05 29.9448 82.5884 29.9448C81.2834 29.9448 80.4308 29.2788 80.2916 28.1569H78.1688C78.4298 30.4707 80.1176 31.8904 82.5884 31.8904C85.3725 31.8904 87.0951 30.0851 87.0951 27.1929V18.9722H85.1289L85.0071 20.1641C84.5025 19.2351 83.4932 18.6918 82.2056 18.6918C79.7522 18.6918 78.1166 20.5848 78.1166 23.1088ZM80.2568 23.0563C80.2568 21.6365 81.1616 20.5673 82.571 20.5673C84.05 20.5673 84.9374 21.5839 84.9374 23.0563C84.9374 24.5637 84.0327 25.5978 82.571 25.5978C81.179 25.5978 80.2568 24.5111 80.2568 23.0563Z" fill="white"/>
<path d="M91.4148 27.6311V22.8985C91.4148 21.6014 92.1978 20.6549 93.5376 20.6549C94.6164 20.6549 95.3298 21.356 95.3298 22.8109V27.6311H97.4527V22.3026C97.4527 20.059 96.3391 18.7093 94.2162 18.7093C92.9809 18.7093 91.9716 19.2527 91.4322 20.094V14.5902H89.292V27.6311H91.4148Z" fill="white"/>
<path d="M101.505 27.6311L101.644 26.2814C102.148 27.2806 103.245 27.859 104.532 27.859C107.003 27.859 108.621 26.0185 108.621 23.3543C108.621 20.6199 107.125 18.6918 104.671 18.6918C103.366 18.6918 102.218 19.2702 101.661 20.2343V14.5902H99.5385V27.6311H101.505ZM101.679 23.2666C101.679 21.7066 102.636 20.6199 104.097 20.6199C105.594 20.6199 106.481 21.7242 106.481 23.2666C106.481 24.8091 105.594 25.8959 104.097 25.8959C102.636 25.8959 101.679 24.8266 101.679 23.2666Z" fill="white"/>
<path d="M114.157 27.8591C116.401 27.8591 117.967 26.7197 118.333 24.8266H116.367C116.123 25.6505 115.357 26.1062 114.192 26.1062C112.782 26.1062 111.982 25.335 111.825 23.8101L118.298 23.7925V23.144C118.298 20.4446 116.663 18.7094 114.087 18.7094C111.564 18.7094 109.807 20.5849 109.807 23.3017C109.807 25.9836 111.599 27.8591 114.157 27.8591ZM114.105 20.4621C115.375 20.4621 116.193 21.2509 116.193 22.4428H111.878C112.086 21.1457 112.852 20.4621 114.105 20.4621Z" fill="white"/>
<path d="M122.47 27.8591C123.81 27.8591 124.976 27.2456 125.341 26.3516L125.498 27.6311H127.36V22.3727C127.36 19.9714 125.933 18.7094 123.618 18.7094C121.287 18.7094 119.756 19.9363 119.756 21.8118H121.565C121.565 20.9004 122.262 20.3746 123.514 20.3746C124.593 20.3746 125.288 20.8478 125.288 22.0221V22.215L122.714 22.4078C120.678 22.5656 119.529 23.5646 119.529 25.1597C119.529 26.7898 120.643 27.8591 122.47 27.8591ZM123.166 26.2465C122.209 26.2465 121.687 25.8608 121.687 25.0721C121.687 24.3709 122.191 23.9327 123.514 23.8101L125.307 23.6698V24.1256C125.307 25.4576 124.471 26.2465 123.166 26.2465Z" fill="white"/>
<path d="M131.568 27.6311V22.7233C131.568 21.3211 132.385 20.655 133.395 20.655C134.404 20.655 135.048 21.3035 135.048 22.513V27.6311H137.17V22.7233C137.17 21.3035 137.954 20.6375 138.98 20.6375C139.99 20.6375 140.651 21.286 140.651 22.5305V27.6311H142.756V21.9696C142.756 19.9714 141.608 18.7094 139.52 18.7094C138.214 18.7094 137.205 19.3579 136.771 20.357C136.318 19.3579 135.413 18.7094 134.108 18.7094C132.873 18.7094 132.002 19.2703 131.568 19.9889L131.394 18.9723H129.445V27.6311H131.568Z" fill="white"/>
<path fill-rule="evenodd" clip-rule="evenodd" d="M64.0225 27.7407H61.5778V14.7086H64.0225V20.0021H69.4426V14.7086H71.8874V27.7407H69.4426V22.307H64.0225V27.7407ZM63.9137 27.6312H61.6865V14.8181H63.9137V20.1116H69.5514V14.8181H71.7786V27.6312H69.5514V22.1975H63.9137V27.6312ZM74.1788 27.7407V18.8627H76.5191V27.7407H74.1788ZM76.7279 15.9399C76.7279 16.7181 76.1059 17.3466 75.3489 17.3466C74.559 17.3466 73.9351 16.72 73.9351 15.9399C73.9351 15.1579 74.561 14.5508 75.3489 14.5508C76.104 14.5508 76.7279 15.1598 76.7279 15.9399ZM76.4103 27.6312H74.2875V18.9723H76.4103V27.6312ZM80.2913 28.157C80.4306 29.2789 81.2832 29.9449 82.5882 29.9449C84.0498 29.9449 84.9895 29.0159 84.9895 27.5786V26.1413C84.9552 26.1924 84.919 26.2423 84.8807 26.291C84.3147 27.01 83.3103 27.4559 82.1532 27.4559C79.7171 27.4559 78.1163 25.6155 78.1163 23.109C78.1163 20.5849 79.752 18.6918 82.2054 18.6918C83.4181 18.6918 84.3838 19.1738 84.9137 20.006C84.9464 20.0574 84.9775 20.1102 85.0068 20.1642L85.1286 18.9723H87.0948V27.193C87.0948 30.0851 85.3722 31.8905 82.5882 31.8905C80.1566 31.8905 78.4834 30.5155 78.1821 28.2666C78.1772 28.2303 78.1727 28.1938 78.1685 28.157H80.2913ZM84.931 19.8363C84.3645 19.0355 83.3936 18.5823 82.2054 18.5823C80.9493 18.5823 79.8976 19.0676 79.1606 19.88C78.4244 20.6915 78.0076 21.8231 78.0076 23.109C78.0076 24.3856 78.4155 25.5 79.1411 26.2965C79.8676 27.0937 80.9065 27.5655 82.1532 27.5655C83.2804 27.5655 84.2782 27.1512 84.8807 26.4618V27.5786C84.8807 28.2726 84.6543 28.8343 84.2608 29.2225C83.867 29.6109 83.2959 29.8354 82.5882 29.8354C81.9535 29.8354 81.4393 29.6735 81.0691 29.385C80.7004 29.0977 80.4656 28.6781 80.3993 28.1435L80.3874 28.0475H78.0467L78.0605 28.1694C78.1937 29.3511 78.6927 30.3113 79.4799 30.9754C80.2663 31.639 81.3321 32 82.5882 32C84.0041 32 85.161 31.5404 85.9638 30.7024C86.7661 29.8648 87.2036 28.6609 87.2036 27.193V18.8627H85.0305L84.931 19.8363ZM80.9655 21.3532C80.5839 21.775 80.3653 22.3697 80.3653 23.0564C80.3653 23.7606 80.5884 24.3688 80.9726 24.7995C81.3558 25.2291 81.9046 25.4884 82.5708 25.4884C83.2748 25.4884 83.8362 25.2401 84.2222 24.8182C84.6091 24.3953 84.8285 23.7882 84.8285 23.0564C84.8285 22.3421 84.6135 21.7485 84.2292 21.3345C83.8458 20.9215 83.2844 20.6769 82.5708 20.6769C81.895 20.6769 81.3462 20.9325 80.9655 21.3532ZM91.5233 27.7407H89.183V14.4807H91.5407V19.7604C92.1328 19.0431 93.0867 18.5998 94.216 18.5998C95.3012 18.5998 96.1429 18.9457 96.7117 19.592C97.2786 20.2362 97.5612 21.164 97.5612 22.3026V27.7407H95.2209V22.811C95.2209 22.1003 95.0466 21.5906 94.7565 21.26C94.4682 20.9311 94.0526 20.7645 93.5374 20.7645C92.8943 20.7645 92.394 20.9909 92.0537 21.3645C91.7123 21.7392 91.5233 22.2719 91.5233 22.8986V27.7407ZM91.5407 19.937C91.5026 19.9881 91.4663 20.0405 91.432 20.0941V14.5903H89.2917V27.6312H91.4145V22.8986C91.4145 21.6015 92.1976 20.655 93.5374 20.655C94.6162 20.655 95.3296 21.3561 95.3296 22.811V27.6312H97.4525V22.3026C97.4525 20.059 96.3388 18.7094 94.216 18.7094C93.0593 18.7094 92.1009 19.1857 91.5407 19.937ZM101.602 27.7407H99.4294V14.4807H101.77V19.8761C102.399 19.0562 103.477 18.5823 104.671 18.5823C105.929 18.5823 106.947 19.0776 107.65 19.9276C108.35 20.7755 108.73 21.9679 108.73 23.3543C108.73 24.7086 108.318 25.8626 107.584 26.6794C106.848 27.4971 105.796 27.9686 104.532 27.9686C103.342 27.9686 102.298 27.4852 101.718 26.6232L101.602 27.7407ZM101.504 27.6312H99.5381V14.5903H101.661V20.2343C101.695 20.1753 101.731 20.1178 101.77 20.0617C102.359 19.2017 103.446 18.6918 104.671 18.6918C107.125 18.6918 108.621 20.62 108.621 23.3543C108.621 26.0186 107.003 27.859 104.532 27.859C103.318 27.859 102.274 27.3448 101.736 26.4485C101.703 26.3942 101.672 26.3385 101.644 26.2815L101.504 27.6312ZM102.42 21.432C102.019 21.8752 101.787 22.509 101.787 23.2667C101.787 24.0242 102.019 24.6535 102.42 25.0921C102.819 25.53 103.394 25.7864 104.097 25.7864C104.817 25.7864 105.382 25.5257 105.769 25.087C106.156 24.6468 106.372 24.0174 106.372 23.2667C106.372 22.516 106.156 21.882 105.768 21.4372C105.382 20.994 104.817 20.7295 104.097 20.7295C103.394 20.7295 102.82 20.9899 102.42 21.432ZM118.465 24.7171L118.44 24.8476C118.252 25.8204 117.754 26.6032 117.013 27.1416C116.273 27.6792 115.297 27.9686 114.157 27.9686C112.851 27.9686 111.734 27.4891 110.944 26.662C110.155 25.8352 109.698 24.6676 109.698 23.3017C109.698 21.9193 110.145 20.7432 110.922 19.9117C111.698 19.0797 112.798 18.5998 114.087 18.5998C115.4 18.5998 116.482 19.0427 117.237 19.8388C117.991 20.6343 118.407 21.772 118.407 23.144V23.9018L111.947 23.9193C112.036 24.6042 112.263 25.111 112.614 25.451C112.984 25.8098 113.507 25.9967 114.192 25.9967C115.331 25.9967 116.037 25.555 116.262 24.7954L116.286 24.7171H118.465ZM111.838 23.9195C112.021 25.372 112.816 26.1062 114.192 26.1062C115.357 26.1062 116.123 25.6505 116.367 24.8267H118.333C118.326 24.8635 118.318 24.9 118.31 24.9362C117.906 26.7636 116.358 27.859 114.157 27.859C111.599 27.859 109.807 25.9835 109.807 23.3017C109.807 20.5849 111.564 18.7094 114.087 18.7094C116.662 18.7094 118.298 20.4446 118.298 23.144V23.7925L111.825 23.81C111.829 23.847 111.833 23.8835 111.838 23.9195ZM115.55 21.0851C115.211 20.7616 114.717 20.5717 114.105 20.5717C113.498 20.5717 113.021 20.7368 112.671 21.0482C112.345 21.3388 112.119 21.766 112.007 22.3333H116.081C116.058 21.8134 115.867 21.3871 115.55 21.0851ZM116.19 22.3333C116.142 21.2029 115.335 20.4622 114.105 20.4622C112.887 20.4622 112.13 21.1073 111.897 22.3333C111.89 22.3693 111.883 22.4059 111.877 22.4429H116.193C116.193 22.406 116.192 22.3695 116.19 22.3333ZM125.498 27.6312L125.341 26.3516C125.316 26.4136 125.286 26.4742 125.254 26.5334C124.813 27.3277 123.717 27.859 122.47 27.859C120.643 27.859 119.529 26.7899 119.529 25.1597C119.529 23.5646 120.677 22.5655 122.713 22.4078L125.289 22.215V22.0222C125.289 20.8478 124.593 20.3745 123.514 20.3745C122.261 20.3745 121.565 20.9004 121.565 21.8119H119.755C119.755 21.7751 119.756 21.7385 119.758 21.7023C119.815 19.8887 121.333 18.7094 123.618 18.7094C125.932 18.7094 127.359 19.9714 127.359 22.3728V27.6312H125.498ZM125.18 22.1133L122.705 22.2985C121.673 22.3785 120.852 22.6728 120.287 23.1617C119.72 23.6531 119.42 24.333 119.42 25.1597C119.42 26.001 119.709 26.7066 120.241 27.2012C120.772 27.695 121.535 27.9686 122.47 27.9686C123.676 27.9686 124.77 27.4801 125.275 26.7087L125.401 27.7407H127.468V22.3728C127.468 21.15 127.104 20.2022 126.431 19.561C125.759 18.9206 124.794 18.5998 123.618 18.5998C122.435 18.5998 121.443 18.9112 120.744 19.4716C120.045 20.0338 119.647 20.8411 119.647 21.8119V21.9214H121.673V21.8119C121.673 21.3877 121.834 21.0625 122.134 20.8396C122.44 20.6132 122.9 20.4841 123.514 20.4841C124.04 20.4841 124.454 20.5998 124.735 20.8414C125.013 21.0801 125.18 21.4575 125.18 22.0222V22.1133ZM122.134 25.8685C122.358 26.0425 122.699 26.137 123.166 26.137C123.797 26.137 124.302 25.9466 124.65 25.607C124.997 25.2677 125.198 24.768 125.198 24.1255V23.7882L123.524 23.9191C123.523 23.9192 123.523 23.9192 123.523 23.9192C122.87 23.98 122.436 24.1175 122.168 24.3129C121.908 24.5028 121.796 24.753 121.796 25.0721C121.796 25.44 121.916 25.6983 122.134 25.8685ZM123.514 23.81C122.191 23.9328 121.687 24.371 121.687 25.0721C121.687 25.8609 122.209 26.2465 123.166 26.2465C124.471 26.2465 125.306 25.4577 125.306 24.1255V23.6699L123.514 23.81ZM131.677 27.7407H129.336V18.8627H131.485L131.629 19.7057C132.121 19.0652 132.969 18.5998 134.108 18.5998C135.365 18.5998 136.272 19.1865 136.769 20.1096C137.266 19.1828 138.266 18.5998 139.52 18.5998C140.585 18.5998 141.425 18.9225 141.998 19.5136C142.571 20.1043 142.864 20.9497 142.864 21.9696V27.7407H140.541V22.5305C140.541 21.927 140.382 21.4835 140.114 21.1916C139.847 20.9009 139.461 20.747 138.98 20.747C138.491 20.747 138.069 20.9054 137.769 21.2234C137.469 21.5418 137.28 22.0334 137.28 22.7233V27.7407H134.938V22.513C134.938 21.9271 134.783 21.4922 134.52 21.2048C134.257 20.9184 133.875 20.7645 133.395 20.7645C132.914 20.7645 132.487 20.9228 132.18 21.2398C131.874 21.5566 131.677 22.0438 131.677 22.7233V27.7407ZM136.83 20.2286C136.809 20.2707 136.789 20.3135 136.77 20.357C136.751 20.3137 136.73 20.2711 136.709 20.2291C136.239 19.3029 135.356 18.7094 134.108 18.7094C132.951 18.7094 132.113 19.2018 131.655 19.855C131.624 19.8989 131.595 19.9436 131.567 19.9889L131.394 18.9723H129.445V27.6312H131.567V22.7233C131.567 21.321 132.386 20.655 133.395 20.655C134.404 20.655 135.048 21.3035 135.048 22.513V27.6312H137.17V22.7233C137.17 21.3035 137.954 20.6375 138.98 20.6375C139.99 20.6375 140.651 21.286 140.651 22.5305V27.6312H142.756V21.9696C142.756 19.9714 141.608 18.7094 139.52 18.7094C138.271 18.7094 137.294 19.3027 136.83 20.2286ZM76.6191 15.9399C76.6191 16.6586 76.0449 17.237 75.3489 17.237C74.6181 17.237 74.0438 16.6586 74.0438 15.9399C74.0438 15.2213 74.6181 14.6604 75.3489 14.6604C76.0449 14.6604 76.6191 15.2213 76.6191 15.9399ZM82.5708 20.5674C81.1613 20.5674 80.2566 21.6365 80.2566 23.0564C80.2566 24.5112 81.1788 25.598 82.5708 25.598C84.0324 25.598 84.9372 24.5638 84.9372 23.0564C84.9372 21.584 84.0498 20.5674 82.5708 20.5674ZM104.097 20.62C102.635 20.62 101.678 21.7067 101.678 23.2667C101.678 24.8267 102.635 25.8959 104.097 25.8959C105.593 25.8959 106.481 24.8091 106.481 23.2667C106.481 21.7242 105.593 20.62 104.097 20.62Z" fill="white"/>
<path fill-rule="evenodd" clip-rule="evenodd" d="M42.3585 14.2086H44.9481C45.2436 15.9282 45.8821 17.5603 46.8257 18.9768L47.0289 19.2818C48.1939 21.0306 48.8236 23.1577 48.8236 25.3437V28.0912H46.2739V26.1062C46.2739 23.3427 45.4779 20.6538 44.0052 18.4431C43.1686 17.1872 42.608 15.7363 42.3585 14.2086ZM46.2739 30.2998H48.8236H51.194V25.3437C51.194 22.5802 50.3979 19.8913 48.9252 17.6806L48.722 17.3756C47.6889 15.8248 47.1305 13.9385 47.1305 12H44.7601H42.2105H39.8401H37.2904H34.92H32.3704H30H30V14.2086H30V14.2875C30 17.0509 30.7961 19.7398 32.2688 21.9505C33.4338 23.6993 34.0635 25.8263 34.0635 28.0123V30.2998H36.4339H38.9835H41.3539H43.9036H46.2739ZM38.9835 28.0912H36.4339V28.0123C36.4339 25.2489 35.6378 22.5601 34.1651 20.3493C33.0001 18.6005 32.3704 16.4735 32.3704 14.2875V14.2086H34.9363C35.0563 16.7297 35.8379 19.1601 37.1888 21.1881C38.3538 22.9368 38.9835 25.0638 38.9835 27.2498V28.0912ZM43.9036 28.0912H41.3539V27.2498C41.3539 25.5372 41.0481 23.8531 40.465 22.2937H43.2401C43.6755 23.4967 43.9036 24.7908 43.9036 26.1062V28.0912ZM39.3529 20.0062C39.2663 19.8646 39.177 19.7248 39.0851 19.5868C38.042 18.0209 37.428 16.1518 37.311 14.2086H39.9568C40.2254 16.3009 40.9527 18.2953 42.0836 20.0062H39.3529Z" fill="white"/>
</svg>
