<svg width="232" height="59" viewBox="0 0 232 59" fill="none" xmlns="http://www.w3.org/2000/svg">
<g clip-path="url(#clip0)">
<path fill-rule="evenodd" clip-rule="evenodd" d="M66.5217 16.5536L33.7562 29.7665C33.6936 29.7921 33.6401 29.8363 33.6028 29.8932C33.5654 29.9502 33.5459 30.0173 33.5469 30.0857C33.5479 30.1541 33.5692 30.2206 33.6082 30.2764C33.6472 30.3323 33.7019 30.3749 33.7651 30.3986L43.4932 33.9705C43.5449 33.9898 43.6005 33.9957 43.6551 33.9878C43.7097 33.9798 43.7614 33.9582 43.8057 33.925L62.2487 20.2986C62.258 20.2923 62.2694 20.2897 62.2805 20.2915C62.2916 20.2933 62.3017 20.2992 62.3087 20.3082C62.3157 20.3171 62.3191 20.3284 62.3183 20.3397C62.3175 20.3511 62.3125 20.3618 62.3044 20.3696L45.9737 34.7719C45.937 34.8036 45.9076 34.843 45.8874 34.8873C45.8673 34.9317 45.8568 34.9799 45.8569 35.0288V42.7099C45.8566 42.7797 45.8777 42.8479 45.9173 42.9051C45.9568 42.9623 46.013 43.0055 46.0778 43.0289C46.1427 43.0523 46.2132 43.0547 46.2795 43.0357C46.3458 43.0167 46.4046 42.9774 46.4478 42.923L51.161 37.0305C51.2046 36.9762 51.2639 36.937 51.3305 36.9183C51.3971 36.8997 51.4678 36.9027 51.5328 36.9267L57.5445 39.1362C57.6243 39.1661 57.7123 39.1639 57.7905 39.13C57.8686 39.0961 57.931 39.0331 57.9648 38.954L66.9546 16.9963C66.9805 16.9348 66.9878 16.867 66.9756 16.8013C66.9634 16.7357 66.9322 16.6752 66.886 16.6275C66.8398 16.5799 66.7806 16.5473 66.7161 16.5338C66.6516 16.5203 66.5845 16.5266 66.5235 16.5518" fill="white"/>
<path d="M76.866 19.2177L73.897 19.2251L73.9411 37.5235L76.9101 37.5161L76.866 19.2177Z" fill="white"/>
<path d="M86.1901 24.3467C84.6939 24.3467 83.3163 24.8931 82.4631 25.986V24.6145H79.6719L79.7024 37.5013H82.4936L82.4739 28.9696C82.7344 28.3539 83.1697 27.8308 83.7243 27.4669C84.279 27.103 84.9279 26.9146 85.5884 26.9259C87.3648 26.9259 88.3815 28.2009 88.3868 30.2446L88.4048 37.4922H91.196L91.1781 29.7856C91.1673 26.4487 89.2257 24.3394 86.1901 24.3467Z" fill="white"/>
<path d="M102.722 24.5634L98.8624 33.5943L94.9862 24.5835L91.8896 24.5908L97.6553 37.4631L100.116 37.4576L105.844 24.5562L102.722 24.5634Z" fill="white"/>
<path d="M112.773 24.2812C111.468 24.292 110.195 24.6946 109.115 25.4382C108.035 26.1818 107.197 27.2331 106.705 28.4594C106.214 29.6857 106.092 31.0322 106.354 32.3289C106.616 33.6256 107.252 34.8145 108.179 35.7456C109.107 36.6766 110.286 37.3081 111.568 37.5605C112.849 37.8128 114.176 37.6746 115.38 37.1633C116.584 36.652 117.611 35.7906 118.333 34.6877C119.055 33.5847 119.439 32.2897 119.435 30.966C119.441 30.0806 119.272 29.203 118.938 28.3849C118.604 27.5667 118.112 26.8245 117.492 26.2017C116.871 25.5789 116.134 25.0882 115.324 24.7584C114.514 24.4286 113.646 24.2664 112.773 24.2812ZM112.799 35.0552C110.541 35.0552 108.964 33.2865 108.957 30.9933C108.949 28.7001 110.517 26.9114 112.781 26.9114C115.015 26.9114 116.59 28.6819 116.596 30.9751C116.601 33.2683 115.033 35.0515 112.806 35.0552H112.799Z" fill="white"/>
<path d="M124.191 19.0639L121.4 19.0713L121.407 21.7015L124.198 21.6941L124.191 19.0639Z" fill="white"/>
<path d="M124.203 24.5048L121.412 24.5122L121.445 37.399L124.236 37.3916L124.203 24.5048Z" fill="white"/>
<path d="M133.115 26.8583C133.849 26.8523 134.568 27.0625 135.186 27.4635C135.804 27.8645 136.294 28.4389 136.596 29.1169L139.03 27.769C137.934 25.6324 135.723 24.2208 133.103 24.2281C129.297 24.2372 126.412 27.1315 126.421 30.9456C126.43 34.7598 129.329 37.6377 133.135 37.6286C134.349 37.6466 135.543 37.3223 136.586 36.6919C137.628 36.0616 138.478 35.1498 139.039 34.0585L136.6 32.7234C136.303 33.4042 135.816 33.9823 135.2 34.3867C134.583 34.7911 133.864 35.0043 133.13 35.0002C130.872 35.0002 129.268 33.2316 129.262 30.9383C129.257 28.6451 130.854 26.8619 133.113 26.8583" fill="white"/>
<path d="M147.12 24.1934C143.264 24.2043 140.507 27.1223 140.516 30.9109C140.526 34.8271 143.298 37.6048 147.161 37.5957C149.825 37.5957 151.803 36.4245 152.938 34.5866L150.802 33.0457C150.145 34.1804 148.954 35.0092 147.179 35.0147C145.074 35.0147 143.395 33.6322 143.262 31.5193L153.232 31.4956C153.256 31.0858 153.256 30.8508 153.256 30.5685C153.247 26.4228 150.45 24.1934 147.126 24.1934H147.12ZM143.377 29.461C143.752 27.5467 145.396 26.5886 147.023 26.5886C148.65 26.5886 150.12 27.5849 150.436 29.441L143.377 29.461Z" fill="white"/>
<path d="M188.468 24.0895H188.374C187.507 24.083 186.647 24.2513 185.844 24.5846C185.041 24.9179 184.311 25.4096 183.697 26.0312C183.083 26.6527 182.597 27.3918 182.267 28.2054C181.937 29.019 181.77 29.8909 181.775 30.7707V30.8071C181.77 31.6894 181.938 32.564 182.269 33.3798C182.601 34.1955 183.09 34.9361 183.707 35.5582C184.324 36.1804 185.057 36.6716 185.863 37.0033C186.669 37.335 187.533 37.5005 188.403 37.4901H188.439C189.308 37.5007 190.171 37.3358 190.977 37.0049C191.782 36.674 192.515 36.1837 193.132 35.5627C193.749 34.9417 194.238 34.2024 194.571 33.3878C194.903 32.5732 195.072 31.6996 195.068 30.818V30.7634C195.073 29.8846 194.905 29.0137 194.574 28.2012C194.244 27.3887 193.758 26.6507 193.145 26.0299C192.531 25.4092 191.803 24.9181 191.001 24.585C190.199 24.2519 189.34 24.0835 188.473 24.0895H188.468ZM188.43 34.8635C186.172 34.8635 184.595 33.0949 184.59 30.8016C184.584 28.5084 186.147 26.7288 188.405 26.7288C190.662 26.7288 192.214 28.4975 192.22 30.7925C192.225 33.0876 190.659 34.8671 188.426 34.8726L188.43 34.8635Z" fill="white"/>
<path d="M176.936 24.3775V25.5633C176.038 24.638 174.725 24.1243 173.202 24.1279C169.523 24.1371 166.867 27.0004 166.851 30.6124C166.834 34.2243 169.556 37.1004 173.234 37.0913C174.757 37.0913 176.074 36.5449 176.961 35.5868V37.1114C176.961 39.115 175.884 40.1878 174.425 40.5157C170.79 41.1787 168.532 40.064 168.532 40.064L167.634 42.3809C168.931 43.2023 172.954 43.4373 174.818 43.0165C177.513 42.5357 179.747 40.7525 179.74 37.135L179.709 24.3684L176.936 24.3775ZM176.956 32.6761C176.298 33.7089 175.206 34.483 173.561 34.4884C171.355 34.4884 169.751 32.8218 169.721 30.6051C169.721 28.3902 171.337 26.7108 173.541 26.7035C175.19 26.7035 176.284 27.4685 176.945 28.474L176.956 32.6761Z" fill="white"/>
<path d="M158.437 34.8741L162.245 29.621C163.014 28.6028 164.237 26.9052 164.467 26.5245C165.521 24.7468 165.658 22.8816 164.736 21.0164C163.987 19.4973 162.658 18.7578 161.026 18.5465C158.737 18.2514 156.355 19.3261 155.278 21.5283C155.023 22.0067 154.856 22.5283 154.786 23.0674L157.225 23.6029C157.263 23.4954 157.297 23.408 157.324 23.3206C157.439 22.8684 157.654 22.4485 157.952 22.0924C158.25 21.7363 158.623 21.4531 159.044 21.2641C159.942 20.8543 161.214 21.0128 161.902 21.6175C163.059 22.6339 163.043 24.3497 162.206 25.4426C162.064 25.6247 154.841 34.9616 154.841 34.9616C154.773 35.0437 154.736 35.1475 154.735 35.2548V37.344L165.457 37.3167V34.8668L158.437 34.8741Z" fill="white"/>
</g>
<defs>
<clipPath id="clip0">
<rect width="161.518" height="26.6972" fill="white" transform="translate(33.5449 16.5288)"/>
</clipPath>
</defs>
</svg>
