<svg width="176" height="45" viewBox="0 0 176 45" fill="none" xmlns="http://www.w3.org/2000/svg">
<path fill-rule="evenodd" clip-rule="evenodd" d="M58.481 10.9885C57.9235 10.132 56.6545 10.1249 56.0872 10.9752L52.7898 15.9174H61.6886L58.481 10.9885ZM46.0487 26.0561L41.6459 32.6197C41.0197 33.5532 41.6999 34.7974 42.8364 34.7974H71.6515C72.7853 34.7974 73.466 33.5586 72.8455 32.6248L68.4804 26.0561H46.0487ZM47.1462 24.3681L51.7197 17.3969H62.6609L67.3003 24.3681H47.1462Z" fill="white"/>
<path d="M83.5276 34.0852V16.9492H86.6229V34.0852H83.5276Z" fill="white"/>
<path d="M93.9212 34.3682C92.8894 34.3682 92.043 34.2096 91.3821 33.8922C90.721 33.559 90.2294 33.1227 89.907 32.5832C89.5845 32.0438 89.4233 31.4488 89.4233 30.7982C89.4233 29.7034 89.8586 28.8149 90.7292 28.1326C91.5997 27.4504 92.9055 27.1092 94.6466 27.1092H97.6935V26.8236C97.6935 26.0144 97.4597 25.4194 96.9923 25.0386C96.5247 24.6578 95.9443 24.4674 95.2512 24.4674C94.6224 24.4674 94.0743 24.6182 93.6068 24.9196C93.1392 25.2052 92.849 25.6336 92.7363 26.2048H89.7135C89.7941 25.348 90.0843 24.6023 90.5841 23.9676C91.0999 23.333 91.7609 22.849 92.567 22.5158C93.373 22.1668 94.2758 21.9922 95.2753 21.9922C96.9841 21.9922 98.3303 22.4127 99.3137 23.2536C100.297 24.0946 100.789 25.2846 100.789 26.8236V34.0826H98.153L97.8628 32.1786C97.5081 32.8133 97.0083 33.3369 96.3635 33.7494C95.7348 34.162 94.9206 34.3682 93.9212 34.3682ZM94.6224 31.9882C95.509 31.9882 96.1943 31.7026 96.6779 31.1314C97.1776 30.5602 97.492 29.8542 97.621 29.0132H94.9852C94.163 29.0132 93.5745 29.164 93.2199 29.4654C92.8652 29.751 92.6879 30.108 92.6879 30.5364C92.6879 30.9966 92.8652 31.3536 93.2199 31.6074C93.5745 31.8613 94.0421 31.9882 94.6224 31.9882Z" fill="white"/>
<path d="M103.742 34.0826V22.2778H106.475L106.717 24.277C107.088 23.5789 107.62 23.0236 108.313 22.611C109.022 22.1985 109.852 21.9922 110.804 21.9922C112.287 21.9922 113.439 22.4524 114.262 23.3726C115.084 24.2929 115.495 25.6416 115.495 27.4186V34.0826H112.4V27.7042C112.4 26.6888 112.19 25.9113 111.771 25.3718C111.352 24.8324 110.699 24.5626 109.812 24.5626C108.942 24.5626 108.224 24.8641 107.66 25.467C107.112 26.07 106.838 26.9109 106.838 27.9898V34.0826H103.742Z" fill="white"/>
<path d="M124.331 34.3682C123.105 34.3682 122.026 34.1064 121.09 33.5828C120.155 33.0592 119.414 32.3294 118.866 31.3932C118.334 30.4571 118.068 29.3861 118.068 28.1802C118.068 26.9744 118.334 25.9034 118.866 24.9672C119.414 24.0311 120.155 23.3012 121.09 22.7776C122.026 22.254 123.105 21.9922 124.331 21.9922C125.862 21.9922 127.152 22.3889 128.2 23.1822C129.247 23.9597 129.917 25.0386 130.207 26.419H126.942C126.781 25.8478 126.459 25.4036 125.975 25.0862C125.508 24.753 124.952 24.5864 124.307 24.5864C123.452 24.5864 122.727 24.9038 122.13 25.5384C121.533 26.1731 121.235 27.0537 121.235 28.1802C121.235 29.3068 121.533 30.1874 122.13 30.822C122.727 31.4567 123.452 31.774 124.307 31.774C124.952 31.774 125.508 31.6154 125.975 31.298C126.459 30.9807 126.781 30.5285 126.942 29.9414H130.207C129.917 31.2742 129.247 32.3452 128.2 33.1544C127.152 33.9636 125.862 34.3682 124.331 34.3682Z" fill="white"/>
<path d="M138.782 34.3682C137.573 34.3682 136.501 34.1144 135.566 33.6066C134.63 33.0989 133.897 32.3849 133.365 31.4646C132.833 30.5444 132.567 29.4813 132.567 28.2754C132.567 27.0537 132.825 25.9668 133.341 25.0148C133.873 24.0628 134.598 23.325 135.517 22.8014C136.453 22.262 137.549 21.9922 138.806 21.9922C139.983 21.9922 141.023 22.2461 141.925 22.7538C142.828 23.2616 143.529 23.9597 144.029 24.8482C144.545 25.7209 144.803 26.6967 144.803 27.7756C144.803 27.9502 144.795 28.1326 144.779 28.323C144.779 28.5134 144.771 28.7118 144.755 28.918H135.638C135.703 29.8383 136.025 30.5602 136.605 31.0838C137.202 31.6074 137.919 31.8692 138.758 31.8692C139.386 31.8692 139.911 31.7344 140.33 31.4646C140.765 31.179 141.087 30.8141 141.297 30.3698H144.44C144.215 31.1156 143.836 31.7978 143.304 32.4166C142.788 33.0196 142.143 33.4956 141.369 33.8446C140.612 34.1937 139.749 34.3682 138.782 34.3682ZM138.806 24.4674C138.049 24.4674 137.379 24.6816 136.799 25.11C136.219 25.5226 135.848 26.1572 135.687 27.014H141.659C141.611 26.2366 141.321 25.6178 140.789 25.1576C140.257 24.6975 139.596 24.4674 138.806 24.4674Z" fill="white"/>
</svg>
