<svg width="176" height="45" viewBox="0 0 176 45" fill="none" xmlns="http://www.w3.org/2000/svg">
<g clip-path="url(#clip0)">
<path fill-rule="evenodd" clip-rule="evenodd" d="M93.0958 12.0792C92.6687 12.101 91.9235 12.2043 91.5438 12.2943C91.1758 12.3816 90.9639 12.4355 90.8787 12.4637C90.8264 12.4809 90.6625 12.5337 90.5144 12.581C88.4803 13.2308 86.5251 14.7086 85.2497 16.5602C85.0403 16.8642 84.6549 17.4943 84.6549 17.5327C84.6549 17.5752 84.536 17.7115 84.5167 17.6912C84.5056 17.6795 84.4966 16.5147 84.4966 15.1026C84.4966 12.7923 84.4916 12.5332 84.4465 12.5149C84.4189 12.5037 81.677 12.4946 78.3534 12.4946C73.5566 12.4946 72.3036 12.5032 72.2775 12.5364C72.2594 12.5595 72.1923 12.7289 72.1282 12.9129C71.8828 13.6183 71.7871 13.89 71.7158 14.084C71.6752 14.1944 71.6043 14.3977 71.5583 14.5358C71.5123 14.6738 71.4408 14.8771 71.3996 14.9875C71.3584 15.0979 71.3037 15.256 71.2782 15.3388C71.2526 15.4216 71.2171 15.5271 71.1992 15.5731C71.1812 15.6191 71.117 15.7998 71.0565 15.9746C70.996 16.1494 70.8726 16.5033 70.7823 16.7609C70.692 17.0186 70.5686 17.3725 70.508 17.5473C70.4474 17.7221 70.3784 17.9179 70.3547 17.9823C70.331 18.0467 70.2621 18.2425 70.2015 18.4173C70.1409 18.5921 70.0177 18.946 69.9277 19.2036C69.8377 19.4613 69.7143 19.8151 69.6534 19.99C69.5924 20.1648 69.5233 20.3606 69.4997 20.425C69.4761 20.4894 69.4212 20.6475 69.3777 20.7764C69.1643 21.4086 68.9984 21.8495 68.9657 21.8717C68.9458 21.8852 68.8058 21.8965 68.6546 21.8968C68.379 21.8973 68.28 21.8592 68.2803 21.7527C68.2803 21.719 68.1707 21.3961 68.0111 20.9604C67.9875 20.8959 67.9299 20.7303 67.8829 20.5923C67.836 20.4543 67.7862 20.3112 67.7723 20.2744C67.7349 20.1754 67.4322 19.3068 67.3407 19.0363C67.2972 18.9075 67.2502 18.772 67.2362 18.7352C67.1671 18.5526 67.1067 18.3834 67.0512 18.2165C67.0175 18.1153 66.887 17.7389 66.7613 17.38C66.6356 17.0211 66.4988 16.6296 66.4576 16.51C66.4162 16.3904 66.3449 16.1871 66.299 16.0583C66.2532 15.9294 66.2038 15.7864 66.1892 15.7404C66.1747 15.6944 66.1248 15.5513 66.0786 15.4225C66.0323 15.2937 65.9458 15.0452 65.8863 14.8704C65.8269 14.6955 65.7651 14.5224 65.749 14.4856C65.7329 14.4488 65.6816 14.3057 65.6351 14.1677C65.5885 14.0296 65.4818 13.721 65.3979 13.4817C65.3141 13.2425 65.2062 12.9338 65.1583 12.7958C65.1103 12.6577 65.0555 12.5337 65.0365 12.5202C64.9953 12.4909 52.1228 12.4856 52.0505 12.5149C52.0054 12.5332 52.0004 12.7987 52.0004 15.1751C52.0004 16.627 52.0039 17.8185 52.0083 17.8227C52.0127 17.8269 52.8928 17.8382 53.9641 17.8478L55.912 17.8652L55.92 22.7924C55.9244 25.5023 55.9244 27.723 55.92 27.7273C55.9156 27.7316 55.0354 27.7429 53.9641 27.7524L52.0162 27.7698L52.0081 30.4216L52 33.0734H58.2522C63.9241 33.0734 64.5061 33.0685 64.5236 33.0205C64.5341 32.9914 64.5428 31.7942 64.5428 30.3602V27.7528L67.7813 27.7612L71.0198 27.7698L71.0357 30.4133L71.0515 33.0567L77.7741 33.0652L84.4966 33.0736V30.4802C84.4966 29.0539 84.505 27.8869 84.5153 27.8869C84.5401 27.8869 84.6526 28.0304 84.6539 28.0638C84.6558 28.112 85.0418 28.7362 85.2622 29.0475C86.2761 30.4796 87.4465 31.528 88.9149 32.3191C89.7165 32.751 90.5811 33.0833 91.3379 33.2505C92.1215 33.4235 92.4738 33.474 93.1389 33.5086C93.7282 33.5392 94.7052 33.5069 95.0436 33.4456C95.1394 33.4283 95.3318 33.3961 95.4712 33.3742C95.7267 33.3339 95.801 33.3166 96.4055 33.1569C98.6738 32.5575 100.836 30.9922 102.197 28.9649C102.862 27.9735 103.356 26.9299 103.649 25.8939C103.68 25.7824 103.73 25.6544 103.76 25.6095C103.811 25.5325 103.814 25.7419 103.815 29.3008L103.817 33.0738L106.66 33.0652L109.502 33.0567L109.491 30.4551C109.481 28.4135 109.487 27.8426 109.518 27.8033C109.546 27.7682 109.619 27.7531 109.76 27.7531C109.997 27.7531 109.984 27.736 110.09 28.2048C110.383 29.5041 110.951 30.5902 111.798 31.47C112.571 32.2723 113.481 32.8229 114.665 33.2047C114.799 33.248 115.447 33.3946 115.71 33.4414C116.085 33.5079 116.898 33.5402 117.364 33.5071C118.521 33.4251 119.594 33.0465 120.637 32.353C121.165 32.0024 121.878 31.3169 122.23 30.823C123.169 29.5053 123.516 28.1553 123.343 26.5036C123.239 25.5133 123.013 24.7854 122.575 24.0388C122.113 23.25 121.33 22.4839 120.445 21.9546C119.815 21.5777 118.655 21.0696 118.022 20.8927C117.97 20.8781 117.778 20.8215 117.594 20.7669C117.218 20.6544 116.862 20.5607 116.423 20.4586C116.257 20.4202 116.065 20.3748 115.995 20.3577C115.925 20.3408 115.754 20.3033 115.615 20.2746C115.476 20.2458 115.291 20.2076 115.203 20.1897C114.898 20.1268 113.983 19.9463 113.524 19.8586C113.42 19.8386 113.185 19.7902 113.002 19.751C112.819 19.7119 112.612 19.6685 112.543 19.6546C112.266 19.5992 112.083 19.5546 111.719 19.4531C111.51 19.3949 111.297 19.3356 111.244 19.3213C111.154 19.2968 110.843 19.1809 110.706 19.1209C110.061 18.8387 109.651 18.5066 109.482 18.13C109.378 17.8979 109.375 17.401 109.476 17.1792C109.577 16.9574 109.817 16.7229 110.078 16.5899C110.476 16.3871 110.878 16.3092 111.525 16.3092C112.427 16.3092 113.172 16.4885 113.968 16.8973C115.076 17.4665 115.823 18.2656 116.133 19.214L116.217 19.4713L119.409 19.4799L122.599 19.4884L122.591 15.9999L122.583 12.5113H119.796H117.009L117.001 15.1381C116.992 18.1101 117.018 17.8484 116.723 17.8484C116.634 17.8484 116.54 17.8297 116.513 17.8066C116.485 17.7824 116.441 17.6309 116.409 17.4469C116.378 17.2721 116.332 17.0462 116.306 16.945C116.28 16.8438 116.247 16.7158 116.234 16.6606C116.181 16.4507 116.001 15.9798 115.864 15.6902C115.206 14.3041 114.142 13.2808 112.692 12.6409C112.54 12.574 112.373 12.5071 112.321 12.4922C112.269 12.4774 112.105 12.4263 111.957 12.3787C111.676 12.2885 111.274 12.199 110.817 12.1248C110.461 12.0672 109.269 12.0658 108.916 12.1226C107.62 12.3313 106.556 12.806 105.622 13.5925C105.374 13.8014 105.033 14.1497 104.831 14.4016C104.735 14.5205 104.639 14.6373 104.618 14.6612C104.52 14.773 104.214 15.3006 104.075 15.5961C103.822 16.1347 103.654 16.6782 103.559 17.2629C103.512 17.558 103.5 18.6299 103.541 19.0698L103.565 19.3375L103.504 19.2036C103.471 19.13 103.404 18.9644 103.356 18.8356C102.654 16.9624 101.289 15.1777 99.6678 14.013C98.74 13.3464 97.5879 12.7676 96.6748 12.5093C95.9277 12.2979 95.5215 12.2118 94.8853 12.1296C94.5975 12.0924 93.4628 12.0604 93.0958 12.0792ZM60.9424 18.0576C61.0553 18.3501 61.3464 19.1366 61.4966 19.555C61.6701 20.0382 61.9728 20.8554 62.0235 20.9771C62.0464 21.0323 62.0755 21.1152 62.0881 21.1611C62.1007 21.2072 62.1304 21.29 62.1541 21.3452C62.2008 21.4537 62.7485 22.9323 62.8234 23.1521C62.8485 23.2257 62.9444 23.4892 63.0365 23.7377C64.4237 27.4804 64.4794 27.6335 64.4794 27.708C64.4794 27.7706 60.3008 27.7755 60.2417 27.7129C60.2124 27.682 60.2037 26.5538 60.2041 22.8359C60.2043 20.1756 60.2131 17.9651 60.2235 17.9237C60.2417 17.8522 60.258 17.8484 60.5521 17.8484H60.8616L60.9424 18.0576ZM75.367 22.782C75.3734 26.6933 75.3669 27.7042 75.3353 27.7254C75.3135 27.74 74.3514 27.7523 73.1973 27.7526C71.2199 27.753 71.099 27.7497 71.0991 27.6945C71.0992 27.6469 71.334 26.9699 71.4444 26.699C71.4595 26.6622 71.5072 26.5342 71.5506 26.4146C71.6714 26.0816 71.799 25.7361 71.8286 25.6617C71.863 25.5753 72.014 25.1643 72.3326 24.2898C72.4735 23.9033 72.6011 23.557 72.6161 23.5201C72.6478 23.4429 72.7705 23.1085 72.874 22.8175C72.9132 22.7071 72.963 22.5716 72.9846 22.5163C73.0062 22.4611 73.0626 22.3105 73.11 22.1817C73.1574 22.0529 73.2104 21.9099 73.2277 21.8638C73.2451 21.8178 73.4417 21.2833 73.6645 20.6759C73.8874 20.0686 74.0872 19.5265 74.1086 19.4713C74.13 19.4161 74.1586 19.3408 74.1722 19.304C74.1983 19.233 74.3086 18.9325 74.4452 18.5597C74.4908 18.4354 74.5476 18.2862 74.5714 18.2282C74.5952 18.1702 74.6147 18.1156 74.6147 18.1068C74.6147 18.0981 74.6365 18.0358 74.6631 17.9685L74.7115 17.8461L75.0352 17.8557L75.359 17.8652L75.367 22.782ZM84.4649 17.8641C84.4649 17.8726 84.4036 18.0119 84.3286 18.1736C84.0933 18.6807 83.9302 19.1203 83.7476 19.739C83.2407 21.4568 83.1832 23.4716 83.5905 25.2434C83.7692 26.0204 84.0044 26.7162 84.3234 27.4115C84.3969 27.5718 84.4508 27.7141 84.4433 27.728C84.4357 27.7418 83.5696 27.7531 82.5186 27.7531C80.8053 27.7531 80.6056 27.7476 80.5884 27.7001C80.562 27.6275 80.564 17.8986 80.5903 17.8708C80.6138 17.846 84.4649 17.8393 84.4649 17.8641ZM98.1714 22.7917L98.1795 27.7183L98.108 27.7365C98.0688 27.7465 96.0627 27.7505 93.65 27.7455L89.2634 27.7363L89.2553 22.7923L89.2473 17.8482L93.7053 17.8567L98.1634 17.8652L98.1714 22.7917ZM103.977 20.6257C104.516 21.7268 105.273 22.4883 106.489 23.1533C106.909 23.3824 107.614 23.6889 108.033 23.8241C108.977 24.1291 109.746 24.3375 110.342 24.4505C110.385 24.4587 110.57 24.4976 110.754 24.5368C111.258 24.6451 111.341 24.6611 112.147 24.8071C112.348 24.8435 112.825 24.9348 113.034 24.9766C113.112 24.9923 113.304 25.0297 113.461 25.0598C115.182 25.389 116.134 25.7185 116.722 26.1884C117.624 26.9091 117.466 28.2029 116.413 28.724C115.546 29.1537 114.013 29.2113 112.889 28.8566C112.598 28.7646 112.591 28.7617 112.233 28.5733C111.526 28.2021 111.005 27.6439 110.658 26.8872C110.477 26.492 110.335 25.9791 110.293 25.5687C110.276 25.4004 110.256 25.3335 110.213 25.3094C110.177 25.289 108.982 25.2769 107.004 25.2769C105.271 25.2769 103.846 25.2655 103.838 25.2515C103.829 25.2377 103.85 25.0908 103.882 24.9253C104.135 23.6544 104.141 21.9869 103.897 20.7535C103.852 20.5227 103.835 20.3631 103.86 20.3943C103.866 20.402 103.919 20.5061 103.977 20.6257Z" fill="white"/>
</g>
<defs>
<clipPath id="clip0">
<rect width="71.641" height="22" fill="white" transform="translate(52 12)"/>
</clipPath>
</defs>
</svg>
