<svg width="47" height="47" viewBox="0 0 47 47" fill="none" xmlns="http://www.w3.org/2000/svg">
<rect width="47" height="47" fill="#DBFD51"/>
<path d="M22.0518 10.8314C22.3565 9.92146 23.6435 9.92146 23.9482 10.8314L26.2122 17.5913C26.3476 17.9958 26.7248 18.2698 27.1514 18.2737L34.28 18.3379C35.2396 18.3465 35.6373 19.5705 34.8661 20.1415L29.1366 24.3836C28.7938 24.6374 28.6497 25.0808 28.7779 25.4877L30.9197 32.2873C31.208 33.2025 30.1668 33.959 29.3854 33.402L23.5805 29.2638C23.2331 29.0162 22.7669 29.0162 22.4195 29.2638L16.6146 33.402C15.8332 33.959 14.792 33.2025 15.0803 32.2873L17.2221 25.4877C17.3503 25.0808 17.2062 24.6374 16.8634 24.3836L11.1339 20.1415C10.3627 19.5705 10.7604 18.3465 11.72 18.3379L18.8486 18.2737C19.2752 18.2698 19.6524 17.9958 19.7878 17.5913L22.0518 10.8314Z" fill="black"/>
</svg>
