<svg width="47" height="47" viewBox="0 0 47 47" fill="none" xmlns="http://www.w3.org/2000/svg">
<rect width="47" height="47" fill="#936DFF"/>
<path d="M31 22.5H29.5V18.5C29.5 17.4 28.6 16.5 27.5 16.5H23.5V15C23.5 13.62 22.38 12.5 21 12.5C19.62 12.5 18.5 13.62 18.5 15V16.5H14.5C13.4 16.5 12.51 17.4 12.51 18.5V22.3H14C15.49 22.3 16.7 23.51 16.7 25C16.7 26.49 15.49 27.7 14 27.7H12.5V31.5C12.5 32.6 13.4 33.5 14.5 33.5H18.3V32C18.3 30.51 19.51 29.3 21 29.3C22.49 29.3 23.7 30.51 23.7 32V33.5H27.5C28.6 33.5 29.5 32.6 29.5 31.5V27.5H31C32.38 27.5 33.5 26.38 33.5 25C33.5 23.62 32.38 22.5 31 22.5Z" fill="white"/>
</svg>
