<svg width="47" height="47" viewBox="0 0 47 47" fill="none" xmlns="http://www.w3.org/2000/svg">
<rect width="47" height="47" fill="#194BFB"/>
<path d="M33.625 11.75L33.425 11.7875L26.75 14.375L19.25 11.75L12.2 14.125C11.9375 14.2125 11.75 14.4375 11.75 14.725V33.625C11.75 33.975 12.025 34.25 12.375 34.25L12.575 34.2125L19.25 31.625L26.75 34.25L33.8 31.875C34.0625 31.7875 34.25 31.5625 34.25 31.275V12.375C34.25 12.025 33.975 11.75 33.625 11.75ZM20.5 14.8375L25.5 16.5875V31.1625L20.5 29.4125V14.8375ZM14.25 16.075L18 14.8125V29.4375L14.25 30.8875V16.075ZM31.75 29.925L28 31.1875V16.575L31.75 15.125V29.925Z" fill="white"/>
</svg>
