<svg width="47" height="47" viewBox="0 0 47 47" fill="none" xmlns="http://www.w3.org/2000/svg">
<rect width="47" height="47" fill="#DBFD51"/>
<path d="M32.8 14H15.2C13.9529 14 13 14.9625 13 16.2222V26.5931C13 27.7778 13.9529 28.8153 15.2 28.8153H26.9329L32.0658 34V28.8153H32.7986C34.0458 28.8153 34.9986 27.7778 34.9986 26.5931L35 16.2222C35 14.9625 34.0471 14 32.8 14H32.8ZM29.5 19.1847C30.5272 19.1847 31.3329 20 31.3329 21.0361C31.3329 22.0736 30.5258 22.8875 29.5 22.8875C28.4729 22.8889 27.6672 22.0736 27.6672 21.0375C27.6672 20 28.4729 19.1847 29.5 19.1847ZM17.7671 22.8889C16.74 22.8889 15.9343 22.0736 15.9343 21.0375C15.9343 20 16.7414 19.1861 17.7671 19.1861C18.7943 19.1861 19.6 20.0014 19.6 21.0375C19.6 22.0736 18.7929 22.8889 17.7671 22.8889ZM23.6329 22.8889C22.6057 22.8889 21.8 22.0736 21.8 21.0375C21.8 20 22.6072 19.1861 23.6329 19.1861C24.66 19.1861 25.4657 20.0014 25.4657 21.0375C25.4671 22.0736 24.66 22.8889 23.6329 22.8889Z" fill="black"/>
</svg>
