<svg width="47" height="47" viewBox="0 0 47 47" fill="none" xmlns="http://www.w3.org/2000/svg">
<rect width="47" height="47" fill="#936DFF"/>
<path d="M31.75 11.75H14.25C12.875 11.75 11.75 12.875 11.75 14.25V31.75C11.75 33.125 12.875 34.25 14.25 34.25H31.75C33.125 34.25 34.25 33.125 34.25 31.75V14.25C34.25 12.875 33.125 11.75 31.75 11.75ZM31.75 31.75H14.25V14.25H31.75V31.75Z" fill="white"/>
<path d="M22.0625 17.65H15.8125V19.525H22.0625V17.65Z" fill="white"/>
<path d="M30.5 27.6875H24.25V29.5625H30.5V27.6875Z" fill="white"/>
<path d="M30.5 24.5625H24.25V26.4375H30.5V24.5625Z" fill="white"/>
<path d="M18 30.5H19.875V28H22.375V26.125H19.875V23.625H18V26.125H15.5V28H18V30.5Z" fill="white"/>
<path d="M25.6125 21.6875L27.375 19.925L29.1375 21.6875L30.4625 20.3625L28.7 18.5875L30.4625 16.825L29.1375 15.5L27.375 17.2625L25.6125 15.5L24.2875 16.825L26.05 18.5875L24.2875 20.3625L25.6125 21.6875Z" fill="white"/>
</svg>
