<svg width="47" height="47" viewBox="0 0 47 47" fill="none" xmlns="http://www.w3.org/2000/svg">
<rect width="47" height="47" fill="#30E87A"/>
<path d="M16.685 14.9573H13.0765C12.5785 14.9573 12.1743 15.3605 12.1743 15.8594V32.0978C12.1743 32.5967 12.5785 33 13.0765 33H16.685C17.183 33 17.5871 32.5967 17.5871 32.0978V15.8594C17.5871 15.3605 17.183 14.9573 16.685 14.9573Z" fill="white"/>
<path d="M23.9023 14.9573H20.2937C19.7958 14.9573 19.3916 15.3605 19.3916 15.8594V32.0978C19.3916 32.5967 19.7958 33 20.2937 33H23.9023C24.4003 33 24.8044 32.5967 24.8044 32.0978V15.8594C24.8044 15.3605 24.4003 14.9573 23.9023 14.9573Z" fill="white"/>
<path d="M33.8006 31.036L29.9791 15.2541C29.8619 14.7696 29.3702 14.4692 28.8903 14.5901L25.3828 15.4381C25.15 15.4941 24.9497 15.6411 24.8252 15.845C24.7007 16.0489 24.6619 16.2942 24.7179 16.527L28.5384 32.3098C28.5944 32.5426 28.7414 32.7429 28.9453 32.8674C29.0896 32.9549 29.252 33 29.4162 33C29.4875 33 29.5587 32.991 29.6282 32.9747L33.1357 32.1258C33.6201 32.0076 33.9178 31.5205 33.8006 31.036Z" fill="white"/>
</svg>
