<svg width="67" height="37" viewBox="0 0 67 37" fill="none" xmlns="http://www.w3.org/2000/svg">
<path d="M13.4224 30.1722H8.52625C6.4359 30.1722 5.65552 28.3199 5.65552 25.7664L5.65202 12.4479H0V25.7664C0 31.489 3.98429 35.8023 9.26804 35.8023H19.0832V12.4479H13.4224V30.1722Z" fill="white"/>
<path d="M28.8054 18.0781H33.7016C35.792 18.0781 36.5723 19.9304 36.5723 22.4839L36.5741 35.8023H42.2261V22.4839C42.2261 16.7613 38.2418 12.4479 32.9581 12.4479H23.1429V35.8023H28.8037V18.0781H28.8054Z" fill="white"/>
<path d="M46.2911 35.8033H52.0413V10.5704L46.2911 12.9529V35.8033Z" fill="white"/>
<path d="M66.6984 30.9979L66.658 30.9996C66.2319 31.0554 65.7707 31.0816 65.2902 31.0816C64.0363 31.0816 63.1455 30.738 62.6404 30.0613C62.1161 29.3566 61.8495 28.1357 61.8495 26.4316V17.0916H66.9983V12.2184H61.8495V6.27603L56.1011 8.65857V26.4752C56.1011 27.9578 56.2326 29.2956 56.4921 30.4537C56.7552 31.6345 57.2182 32.6566 57.867 33.4903C58.5194 34.3327 59.4137 34.985 60.5238 35.4263C61.6181 35.8624 62.9947 36.0821 64.6115 36.0821C65.3621 36.0821 66.0776 36.035 66.7405 35.9443L67 35.9077V30.9979H66.6984Z" fill="white"/>
<path d="M46.2911 0.5V8.52841L52.0413 6.14587V0.5H46.2911Z" fill="white"/>
</svg>
