<svg width="47" height="47" viewBox="0 0 47 47" fill="none" xmlns="http://www.w3.org/2000/svg">
<rect width="47" height="47" fill="black"/>
<path fill-rule="evenodd" clip-rule="evenodd" d="M25.7777 25.9161C28.3883 25.7772 32.1665 24.6378 34.6665 23.2772V32.0555C34.6665 33.1383 33.805 33.9999 32.7221 33.9999H14.9444C13.8615 33.9999 13 33.1383 13 32.0555V23.3055C15.5 24.6662 19.2783 25.7773 21.8888 25.9444V26.7777C21.8888 27.3886 22.389 27.8888 22.9999 27.8888H24.6666C25.2775 27.8888 25.7777 27.3886 25.7777 26.7777V25.9161ZM34.6665 19.2778V22.0273C32.3336 23.4444 28.4449 24.6662 25.7777 24.8334V24.0001C25.7777 23.3892 25.2775 22.889 24.6666 22.889H22.9999C22.389 22.889 21.8888 23.3892 21.8888 24.0001V24.8052C19.2217 24.6381 15.3328 23.4163 13 21.9991V19.2777C13 18.1949 13.8615 17.3333 14.9444 17.3333H19.6666V16.5C19.6666 15.1111 20.7777 14 22.1666 14H25.4999C26.8888 14 27.9999 15.1111 27.9999 16.5V17.3333H32.7221C33.805 17.3333 34.6665 18.1949 34.6665 19.2778ZM26.8888 16.5C26.8888 15.722 26.2779 15.1111 25.4999 15.1111H22.1666C21.3886 15.1111 20.7777 15.722 20.7777 16.5V17.3333H26.8888V16.5ZM24.6666 24H22.9999V26.7777H24.6666V24Z" fill="white"/>
</svg>
