<svg width="48" height="47" viewBox="0 0 48 47" fill="none" xmlns="http://www.w3.org/2000/svg">
<rect x="0.5" width="47" height="47" fill="#936DFF"/>
<path d="M36.3828 22.835C35.5327 23.5596 34.4304 24.0001 33.2024 24.0001C32.0053 24.0001 30.9029 23.5596 30.0528 22.8657C29.5804 23.2754 29.1399 23.7786 28.793 24.3458C30.1783 25.7631 31.1232 27.8424 31.3754 30.1725C31.9426 30.2045 32.5725 30.2352 33.2331 30.2352C35.8783 30.2352 37.7052 29.7628 38.5248 29.5106C38.8077 29.4159 39.0292 29.1329 38.9972 28.8179C38.8717 26.2995 37.8628 24.1257 36.3828 22.835L36.3828 22.835Z" fill="white"/>
<path d="M36.6028 18.9928C36.6028 20.8714 35.0809 22.3934 33.2022 22.3934C31.3235 22.3934 29.8003 20.8715 29.8003 18.9928C29.8003 17.1141 31.3234 15.5909 33.2022 15.5909C35.0808 15.5909 36.6028 17.114 36.6028 18.9928Z" fill="white"/>
<path d="M18.0203 22.8349C17.1701 23.5596 16.0358 23.9693 14.8707 23.9693C13.6736 23.9693 12.5712 23.5289 11.7211 22.8349C10.241 24.0948 9.23343 26.2674 9.10669 28.787C9.10669 29.102 9.29616 29.385 9.57913 29.4797C10.3985 29.7319 12.2563 30.2043 14.8708 30.2043C15.5327 30.2043 16.1626 30.1724 16.7285 30.1416C16.9807 27.8114 17.9256 25.7322 19.3109 24.3149C18.9344 23.7477 18.4927 23.2445 18.0203 22.8348L18.0203 22.8349Z" fill="white"/>
<path d="M18.2727 18.9928C18.2727 20.8714 16.7496 22.3934 14.8708 22.3934C12.9922 22.3934 11.4702 20.8715 11.4702 18.9928C11.4702 17.1141 12.9921 15.5909 14.8708 15.5909C16.7495 15.5909 18.2727 17.114 18.2727 18.9928Z" fill="white"/>
<path d="M27.1863 25.0075C26.3362 25.7322 25.2338 26.1419 24.0367 26.1419C22.8396 26.1419 21.7373 25.7322 20.8871 25.0075C19.4071 26.2994 18.3994 28.4721 18.2727 30.9918C18.2727 31.3067 18.4622 31.5897 18.7451 31.6844C19.5645 31.9366 21.4223 32.4091 24.0368 32.4091C26.6512 32.4091 28.5089 31.9366 29.3284 31.6844C29.6114 31.5897 29.8328 31.3067 29.8008 30.9918C29.7061 28.4413 28.6665 26.2674 27.1864 25.0075H27.1863Z" fill="white"/>
<path d="M27.4385 21.1653C27.4385 23.044 25.9154 24.5672 24.0366 24.5672C22.1579 24.5672 20.6348 23.0441 20.6348 21.1653C20.6348 19.2866 22.1579 17.7635 24.0366 17.7635C25.9154 17.7635 27.4385 19.2866 27.4385 21.1653Z" fill="white"/>
</svg>
