<svg width="48" height="47" viewBox="0 0 48 47" fill="none" xmlns="http://www.w3.org/2000/svg">
<rect x="0.5" width="47" height="47" fill="#30E87A"/>
<path d="M12.625 29.25H22.0961C22.125 30.0238 22.6707 30.5 23.375 30.5H25.75C26.4801 30.5 27.0398 29.8176 27.0301 29.25H36.375C36.7188 29.25 37 29.5312 37 29.875V30.5C37 31.875 35.875 33 34.5 33H14.5C13.125 33 12 31.875 12 30.5V29.875C12 29.5312 12.2812 29.25 12.625 29.25ZM14.5 14.875C14.5 13.8438 15.3438 13 16.375 13H32.625C33.6562 13 34.5 13.8438 34.5 14.875V28H14.5V14.875ZM17 25.5H32V15.5H17V25.5Z" fill="white"/>
</svg>
