<svg width="61" height="61" viewBox="0 0 61 61" fill="none" xmlns="http://www.w3.org/2000/svg">
<rect x="0.5" y="0.565674" width="60" height="60" fill="#DBFD51"/>
<path d="M45.4979 25.3729L33.3793 18.5657L27.6145 21.8059L21.8498 18.5657L15.5 22.1346V35.7565L27.6207 42.5637L33.3855 39.3255L39.1502 42.5657L45.5 39.0183L45.4979 25.3729ZM22.4287 26.0303L27.0277 23.4456V28.6208L22.4287 31.2075V26.0303ZM27.6145 29.6011L32.2195 32.1898L27.6186 34.7745L23.0136 32.1859L27.6145 29.6011ZM33.3793 19.8707L43.7592 25.6997L39.1462 28.2922L28.7704 22.4613L28.7764 22.4593L33.3793 19.8707ZM21.8498 19.8707L26.4548 22.4574L26.4488 22.4613L21.8458 25.0499L17.2408 22.4613L21.8498 19.8707ZM16.6598 35.105V23.4396L21.2709 26.0302V32.5338L27.0418 35.7545V40.9378L16.6598 35.105ZM28.1996 35.7585L32.7986 33.1738V38.3511L28.1996 40.9338V35.7585ZM33.9685 38.3511V31.8589L28.1976 28.6187L28.1996 23.4535V23.4457L38.5692 29.2941V40.934L33.9685 38.3511ZM44.3381 38.3432L39.7291 40.9338V29.2684L44.3401 26.6778V38.3432H44.3381Z" fill="black"/>
</svg>
