<svg width="61" height="61" viewBox="0 0 61 61" fill="none" xmlns="http://www.w3.org/2000/svg">
<rect x="0.5" y="0.565674" width="60" height="60" fill="#E2E4E7"/>
<path d="M37.6844 26.0237L36.6033 24.9426L27.801 33.7449L24.7494 30.6933L23.6606 31.7821L27.801 35.9148L37.6844 26.0237Z" fill="black"/>
<path d="M30.3839 46.1504C35.6207 46.1504 42.2683 40.5535 42.2683 34.266V17.6895L30.1464 15.5657L18.5 17.6665V34.2661C18.5 40.553 25.1476 46.1505 30.3844 46.1505L30.3839 46.1504ZM20.033 18.9467L30.1459 17.1219L40.7344 18.9773V34.2657C40.7344 39.6331 34.8994 44.6167 30.3834 44.6167C25.8675 44.6167 20.0325 39.5948 20.0325 34.2657L20.033 18.9467Z" fill="black"/>
</svg>
