<svg width="60" height="60" viewBox="0 0 60 60" fill="none" xmlns="http://www.w3.org/2000/svg">
<rect width="60" height="60" fill="black"/>
<path d="M40.6077 25.8691H40.5477C40.0964 25.8386 39.7356 25.4178 39.7649 24.9664L40.2163 19.7315L34.9813 20.1828C34.53 20.2428 34.1092 19.8819 34.0786 19.4C34.0481 18.9487 34.3795 18.5279 34.8614 18.4973L41.0897 17.9249C41.3306 17.8944 41.5716 17.9849 41.7514 18.1659C41.9324 18.3469 42.0217 18.5866 41.9923 18.8276L41.4505 25.0558C41.4211 25.5378 41.0297 25.8692 40.6077 25.8692L40.6077 25.8691Z" fill="white"/>
<path d="M32.9656 27.8251C32.7552 27.8251 32.5448 27.7346 32.3638 27.5842C32.0323 27.2527 32.0323 26.7121 32.3638 26.3806L40.5478 18.1658C40.8793 17.8344 41.42 17.8344 41.7514 18.1658C42.0829 18.4973 42.0829 19.038 41.7514 19.3694L33.5367 27.5842C33.3862 27.7652 33.1758 27.8251 32.9654 27.8251H32.9656Z" fill="white"/>
<path d="M18.7637 42.057C18.5533 42.057 18.3123 41.9665 18.1619 41.8161C17.9809 41.635 17.8915 41.3953 17.9209 41.1543L18.4628 34.9261C18.4933 34.4747 18.9141 34.1139 19.3655 34.1433C19.8168 34.1738 20.1776 34.5946 20.1483 35.046L19.6969 40.2809L24.9319 39.8296C25.4138 39.7697 25.804 40.1305 25.8346 40.6124C25.8651 41.0638 25.5337 41.4845 25.0518 41.5151L18.8235 42.057H18.7636L18.7637 42.057Z" fill="white"/>
<path d="M18.7635 42.0574C18.5531 42.0574 18.3427 41.9669 18.1617 41.8165C17.8302 41.485 17.8302 40.9444 18.1617 40.6129L26.3764 32.3981C26.7079 32.0667 27.2486 32.0667 27.58 32.3981C27.9115 32.7296 27.9115 33.2703 27.58 33.6017L19.3653 41.8165C19.1843 41.9669 18.9739 42.0574 18.7635 42.0574Z" fill="white"/>
<path d="M41.1493 42.0573H41.0894L34.8611 41.5154C34.4098 41.4849 34.049 41.0641 34.0783 40.6127C34.1089 40.1614 34.5297 39.8006 34.981 39.8299L40.216 40.2813L39.7647 35.0463C39.7341 34.5949 40.0656 34.1742 40.5475 34.1436C41.0294 34.0837 41.4196 34.4445 41.4502 34.9264L41.992 41.1243C42.0226 41.3652 41.9321 41.6062 41.7511 41.786C41.5712 41.967 41.3597 42.0575 41.1493 42.0575L41.1493 42.0573Z" fill="white"/>
<path d="M41.1496 42.0574C40.9392 42.0574 40.7289 41.9669 40.5478 41.8165L32.3638 33.6017C32.0323 33.2703 32.0323 32.7296 32.3638 32.3981C32.6952 32.0667 33.2359 32.0667 33.5674 32.3981L41.7514 40.6129C42.0829 40.9444 42.0829 41.485 41.7514 41.8165C41.5716 41.9669 41.36 42.0574 41.1496 42.0574Z" fill="white"/>
<path d="M19.3053 25.8692C18.8845 25.8692 18.4931 25.5377 18.4626 25.0864L17.9207 18.8581C17.8901 18.6172 17.9806 18.3762 18.1617 18.1964C18.3427 18.0154 18.5824 17.9261 18.8234 17.9555L25.0516 18.4973C25.503 18.5279 25.8638 18.9487 25.8344 19.4C25.8039 19.8513 25.3831 20.2122 24.9317 20.1828L19.6968 19.7315L20.1481 24.9664C20.1787 25.4178 19.8472 25.8386 19.3653 25.8691H19.3054L19.3053 25.8692Z" fill="white"/>
<path d="M26.9475 27.8251C26.7371 27.8251 26.5268 27.7346 26.3457 27.5842L18.1617 19.3694C17.8302 19.038 17.8302 18.4973 18.1617 18.1658C18.4932 17.8344 19.0338 17.8344 19.3653 18.1658L27.5493 26.3806C27.8808 26.7121 27.8808 27.2527 27.5493 27.5842C27.3989 27.7652 27.1885 27.8251 26.9475 27.8251Z" fill="white"/>
</svg>
